<svg id="Layer_1" data-name="Layer 1" xmlns="http://www.w3.org/2000/svg" viewBox="0 0 500 500"><defs><style>.cls-1,.cls-2,.cls-3{fill:#fff;}.cls-2,.cls-3{stroke:#000;stroke-miterlimit:10;}.cls-2{stroke-width:15px;}.cls-3{stroke-linecap:round;stroke-width:7px;}</style></defs><title>placeholder</title><path class="cls-1" d="M250,490A240,240,0,0,1,80.29,80.29,240,240,0,0,1,419.71,419.71,238.43,238.43,0,0,1,250,490Z"/><path d="M250,20a230.07,230.07,0,0,1,89.52,441.93,230.06,230.06,0,0,1-179-423.86A228.49,228.49,0,0,1,250,20m0-20C111.93,0,0,111.93,0,250S111.93,500,250,500,500,388.07,500,250,388.07,0,250,0Z"/><circle class="cls-2" cx="198.03" cy="204.24" r="97.92"/><path class="cls-3" d="M225.74,280a80.66,80.66,0,0,1-103.45-48"/><path class="cls-3" d="M170.32,128.5a80.64,80.64,0,0,1,103.44,48"/><rect x="301.38" y="276.03" width="33.84" height="150.49" rx="7.19" transform="translate(-150.48 280.91) rotate(-39.28)"/></svg>